<svg width="259" height="62" viewBox="0 0 259 62" fill="none" xmlns="http://www.w3.org/2000/svg">
<path d="M14.9405 8.408H7.1965V0.791996H14.9405V8.408ZM0.732504 61.272V54.36C2.86584 54.36 4.5085 53.848 5.6605 52.824C6.8125 51.8 7.3885 49.944 7.3885 47.256V14.552H14.7485V47.256C14.7485 49.688 14.3432 51.9707 13.5325 54.104C12.7645 56.2373 11.3565 57.9653 9.3085 59.288C7.30317 60.6107 4.4445 61.272 0.732504 61.272ZM41.6565 47V42.712C39.6938 44.4187 37.8592 45.6773 36.1525 46.488C34.4458 47.256 32.7178 47.64 30.9685 47.64C28.0672 47.64 25.8272 46.6587 24.2485 44.696C22.6698 42.6907 21.8805 39.896 21.8805 36.312V14.552H29.2405V35.416C29.2405 39 30.5632 40.792 33.2085 40.792C34.2752 40.792 35.4272 40.536 36.6645 40.024C37.9445 39.512 39.4805 38.5307 41.2725 37.08V14.552H48.6325V47H41.6565ZM65.294 41.24C66.8727 41.24 68.174 40.984 69.198 40.472C70.222 39.9173 70.734 39.1067 70.734 38.04C70.734 37.1013 70.3927 36.376 69.71 35.864C69.07 35.3093 67.8967 34.8187 66.19 34.392L62.542 33.432C59.726 32.7067 57.6353 31.4907 56.27 29.784C54.9473 28.0773 54.286 26.0507 54.286 23.704C54.286 20.9307 55.246 18.6053 57.166 16.728C59.086 14.8507 62.0513 13.912 66.062 13.912C67.6833 13.912 69.39 14.104 71.182 14.488C72.974 14.872 74.8513 15.4907 76.814 16.344L74.702 22.616C72.91 21.7627 71.2887 21.1653 69.838 20.824C68.3873 20.4827 67.1073 20.312 65.998 20.312C62.9687 20.312 61.454 21.336 61.454 23.384C61.454 24.1947 61.71 24.8347 62.222 25.304C62.7767 25.7733 63.7793 26.2 65.23 26.584L68.878 27.544C71.9927 28.3547 74.254 29.592 75.662 31.256C77.1127 32.92 77.838 35.0107 77.838 37.528C77.838 40.5147 76.814 42.9467 74.766 44.824C72.7607 46.7013 69.582 47.64 65.23 47.64C61.518 47.64 57.614 46.7867 53.518 45.08L55.502 39C57.5073 39.8107 59.3207 40.3867 60.942 40.728C62.5633 41.0693 64.014 41.24 65.294 41.24ZM102.354 45.912C101.244 46.424 99.9642 46.8293 98.5135 47.128C97.0628 47.4693 95.5908 47.64 94.0975 47.64C91.6228 47.64 89.6388 47.128 88.1455 46.104C86.6522 45.08 85.5642 43.6507 84.8815 41.816C84.2415 39.9813 83.9215 37.8907 83.9215 35.544V20.952H78.6735V14.552H83.9215V6.104H91.2815V14.552H101.394V20.952H91.2815V35.544C91.2815 37.5067 91.6442 38.872 92.3695 39.64C93.1375 40.3653 94.2255 40.728 95.6335 40.728C96.3162 40.728 97.0415 40.664 97.8095 40.536C98.6202 40.3653 99.5162 40.088 100.498 39.704L102.354 45.912ZM113.263 8.408H105.519V0.791996H113.263V8.408ZM113.071 47H105.711V14.552H113.071V47ZM136.523 20.76C135.456 20.76 134.24 21.016 132.875 21.528C131.51 22.04 129.888 23.0427 128.011 24.536V47H120.651V14.552H127.627V18.904C129.632 17.1547 131.531 15.896 133.323 15.128C135.115 14.3173 136.928 13.912 138.763 13.912C141.878 13.912 144.246 14.9147 145.867 16.92C147.488 18.8827 148.299 21.656 148.299 25.24V47H140.939V26.136C140.939 22.552 139.467 20.76 136.523 20.76ZM174.986 45.912C173.877 46.424 172.597 46.8293 171.146 47.128C169.695 47.4693 168.223 47.64 166.73 47.64C164.255 47.64 162.271 47.128 160.778 46.104C159.285 45.08 158.197 43.6507 157.514 41.816C156.874 39.9813 156.554 37.8907 156.554 35.544V20.952H151.306V14.552H156.554V6.104H163.914V14.552H174.026V20.952H163.914V35.544C163.914 37.5067 164.277 38.872 165.002 39.64C165.77 40.3653 166.858 40.728 168.266 40.728C168.949 40.728 169.674 40.664 170.442 40.536C171.253 40.3653 172.149 40.088 173.13 39.704L174.986 45.912ZM202.984 45.144C200.765 46.04 198.674 46.68 196.712 47.064C194.749 47.448 192.893 47.64 191.144 47.64C186.322 47.64 182.674 46.2747 180.2 43.544C177.725 40.8133 176.488 37.1867 176.488 32.664V28.824C176.488 25.7947 177.042 23.1707 178.152 20.952C179.261 18.7333 180.84 17.0053 182.888 15.768C184.936 14.5307 187.346 13.912 190.12 13.912C192.381 13.912 194.493 14.3813 196.456 15.32C198.461 16.216 200.082 17.6453 201.32 19.608C202.6 21.528 203.24 24.0027 203.24 27.032C203.24 27.928 203.176 28.888 203.048 29.912C202.92 30.8933 202.706 31.9387 202.408 33.048H183.592C183.677 35.6933 184.338 37.6773 185.576 39C186.813 40.3227 188.797 40.984 191.528 40.984C192.978 40.984 194.472 40.8133 196.008 40.472C197.586 40.1307 199.208 39.6187 200.872 38.936L202.984 45.144ZM190.12 20.12C188.157 20.12 186.621 20.76 185.512 22.04C184.445 23.2773 183.826 25.0693 183.656 27.416H195.944C195.986 27.2027 196.008 27.0107 196.008 26.84C196.008 26.6267 196.008 26.4347 196.008 26.264C196.008 24.216 195.432 22.68 194.28 21.656C193.128 20.632 191.741 20.12 190.12 20.12ZM227.463 21.272C225.457 21.272 223.537 21.592 221.703 22.232C219.911 22.8293 218.183 23.8107 216.519 25.176V47H209.159V14.552H216.135V19.544C218.311 17.496 220.252 16.0453 221.959 15.192C223.665 14.3387 225.5 13.912 227.463 13.912V21.272ZM247.221 20.76C246.154 20.76 244.938 21.016 243.573 21.528C242.207 22.04 240.586 23.0427 238.709 24.536V47H231.349V14.552H238.325V18.904C240.33 17.1547 242.229 15.896 244.021 15.128C245.813 14.3173 247.626 13.912 249.461 13.912C252.575 13.912 254.943 14.9147 256.565 16.92C258.186 18.8827 258.997 21.656 258.997 25.24V47H251.637V26.136C251.637 22.552 250.165 20.76 247.221 20.76Z" fill="url(#paint0_linear_1462_824)"/>
<defs>
<linearGradient id="paint0_linear_1462_824" x1="2" y1="22.5" x2="264" y2="22.5" gradientUnits="userSpaceOnUse">
<stop stop-color="#443AB9"/>
<stop offset="1" stop-color="#1E25FF"/>
</linearGradient>
</defs>
</svg>
